# xmcd CD database file
#
# Track frame offsets:
#	150
#	29835
#	54750
#	123199
#	158808
#	245868
#
# Disc length: 3869 seconds
#
# Revision: 0
# Processed by: cddbd v1.5.2PL0 Copyright (c) Steve Scherf et al.
# Submitted via: CDex 1.70beta2
#
DISCID=4b0f1b06
DTITLE=John McLaughlin - Live at the Royal Festival Hall
DYEAR=1900
DGENRE=Jazz
TTITLE0=Blue in Green
TTITLE1=Just Ideas/Jozy 
TTITLE2=Florianapolis
TTITLE3=Pasha's Love
TTITLE4=Mother Tongues
TTITLE5=Blues for L.W. 
EXTD=
EXTT0=
EXTT1=
EXTT2=
EXTT3=
EXTT4=
EXTT5=
PLAYORDER=
